<svg width="187.000000" height="30.000000" viewBox="0 0 187 30" fill="none" xmlns="http://www.w3.org/2000/svg" xmlns:xlink="http://www.w3.org/1999/xlink">
	<path id="logo" d="M23.13 3.85L23.13 -0.8L18.66 -0.8L18.66 22L23.13 22L23.13 14.29Q23.13 12.55 23.45 11.34Q23.77 10.13 24.55 9.51Q25.33 8.88 26.67 8.88Q27.66 8.88 28.27 9.36Q28.49 9.54 28.67 9.78Q29.31 10.67 29.31 12.43L29.31 22L33.78 22L33.78 11.32Q33.78 9.21 33.05 7.88Q32.61 7.09 31.96 6.54Q31.52 6.18 31 5.93Q29.68 5.31 27.91 5.31Q26.89 5.31 26.02 5.56Q25.44 5.72 24.94 6Q24.66 6.15 24.41 6.34Q23.69 6.86 23.16 7.71L22.92 7.71Q22.97 7.26 23.05 6.16Q23.13 5.06 23.13 3.85ZM12.65 18.96Q13.33 17.69 13.33 16.05Q13.33 14.36 12.7 13.23Q12.07 12.09 10.91 11.25Q9.74 10.41 8.1 9.63Q6.75 8.99 5.85 8.5Q4.95 8.02 4.51 7.5Q4.38 7.35 4.29 7.18Q4.06 6.76 4.06 6.22Q4.06 5.68 4.28 5.25Q4.32 5.16 4.37 5.08Q4.41 5.02 4.45 4.96Q4.75 4.56 5.28 4.32Q5.88 4.05 6.73 4.05Q7.31 4.05 7.89 4.13Q8.51 4.21 9.11 4.38Q10.29 4.71 11.76 5.31L13.23 1.78Q11.57 1.05 10.06 0.66Q8.54 0.27 6.87 0.27Q4.65 0.27 3.01 1Q1.72 1.57 0.9 2.54Q0.68 2.8 0.5 3.08Q0.49 3.1 0.48 3.12Q-0.38 4.47 -0.38 6.37Q-0.38 7.83 0.13 8.88Q0.63 9.92 1.42 10.66Q2.21 11.39 3.09 11.89Q3.97 12.4 4.72 12.75Q5.91 13.32 6.85 13.82Q7.79 14.32 8.34 14.89Q8.59 15.15 8.72 15.46Q8.88 15.83 8.88 16.27Q8.88 16.82 8.67 17.26Q8.62 17.35 8.57 17.44Q8.26 17.95 7.58 18.25Q6.9 18.54 5.79 18.54Q4.18 18.54 2.54 18Q0.9 17.45 -0.63 16.78L-0.63 21Q0.25 21.42 1.22 21.71Q2.2 22 3.26 22.14Q4.32 22.29 5.44 22.29Q7.96 22.29 9.72 21.53Q11.28 20.85 12.19 19.67Q12.3 19.52 12.41 19.36Q12.54 19.16 12.65 18.96ZM54.51 17.41Q55.06 15.83 55.06 13.78Q55.06 11.05 54.04 9.16Q53.36 7.9 52.34 7.04Q51.83 6.62 51.25 6.29Q51.19 6.26 51.14 6.23Q49.4 5.31 47.17 5.31Q44.69 5.31 42.9 6.29Q42.22 6.67 41.65 7.18Q40.75 8 40.15 9.16Q39.18 11.05 39.18 13.78Q39.18 15.83 39.76 17.41Q40.34 18.99 41.4 20.08Q41.84 20.54 42.35 20.9Q43.06 21.41 43.91 21.73Q45.35 22.29 47.08 22.29Q48.92 22.29 50.4 21.73Q51.43 21.34 52.26 20.68Q52.6 20.41 52.92 20.08Q53.96 18.99 54.51 17.41ZM72.21 5.87Q71.08 5.31 69.66 5.31Q68.49 5.31 67.61 5.64Q66.72 5.97 66.09 6.53Q65.46 7.08 65.02 7.74L64.82 7.74L64.19 5.62L60.55 5.62L60.55 29.2L65.02 29.2L65.02 22.6Q65.02 22.01 64.96 21.39Q64.9 20.78 64.79 20.19L65.02 20.19Q65.46 20.74 66.06 21.21Q66.66 21.69 67.51 21.99Q68.36 22.29 69.55 22.29Q70.85 22.29 71.93 21.81Q72.39 21.61 72.81 21.32Q74.23 20.35 75.04 18.46Q75.85 16.56 75.85 13.78Q75.85 9.62 74.14 7.46Q73.3 6.41 72.21 5.87ZM66.37 9.37Q67.06 8.88 68.23 8.88Q69.17 8.88 69.81 9.32Q70.24 9.61 70.54 10.1Q71.29 11.32 71.29 13.72Q71.29 15.32 70.96 16.42Q70.63 17.53 69.97 18.1Q69.85 18.2 69.72 18.29Q69.12 18.67 68.29 18.67Q67.04 18.67 66.33 18.1Q65.62 17.53 65.32 16.43Q65.02 15.33 65.02 13.75L65.02 13.26Q65.05 11.79 65.37 10.82Q65.66 9.91 66.28 9.43Q66.33 9.4 66.37 9.37ZM44.09 16.49Q43.74 15.39 43.74 13.78Q43.74 11.35 44.54 10.13Q44.77 9.78 45.08 9.53Q45.85 8.91 47.11 8.91Q48.31 8.91 49.06 9.46Q49.07 9.47 49.09 9.48Q49.81 10.02 50.15 11.07Q50.49 12.15 50.49 13.78Q50.49 15.39 50.15 16.49Q49.8 17.59 49.06 18.14Q48.32 18.7 47.14 18.7Q45.94 18.7 45.19 18.14Q44.44 17.59 44.09 16.49Z" fill="#2D2D2D" fill-opacity="1.000000" fill-rule="evenodd"/>
	<path id="logo" d="M128.53 22L133 22L133 -0.8L128.53 -0.8L128.53 22ZM143.38 -0.38Q142.68 -0.8 141.73 -0.8Q140.72 -0.8 140.01 -0.34Q139.92 -0.28 139.85 -0.21Q139.3 0.28 139.3 1.38Q139.3 2.47 139.84 2.97Q139.92 3.05 140.01 3.11Q140.04 3.13 140.07 3.14Q140.76 3.58 141.73 3.58Q142.64 3.58 143.31 3.19Q143.38 3.15 143.44 3.11Q143.54 3.04 143.62 2.96Q144.16 2.46 144.16 1.38Q144.16 0.29 143.61 -0.21Q143.53 -0.28 143.44 -0.34Q143.41 -0.36 143.38 -0.38ZM100.51 15.76Q101.13 13.73 101.13 11.26Q101.13 7.92 100.04 5.44Q99.4 4.01 98.38 2.95Q97.64 2.18 96.7 1.6Q94.45 0.24 90.96 0.24Q87.46 0.24 85.19 1.6Q84.17 2.21 83.39 3.05Q82.43 4.07 81.83 5.43Q80.74 7.9 80.74 11.23Q80.74 13.72 81.35 15.75Q81.97 17.79 83.22 19.26Q83.44 19.52 83.69 19.76Q84.82 20.86 86.39 21.5Q88.31 22.29 90.93 22.29Q93.55 22.29 95.47 21.5Q97.05 20.86 98.17 19.76Q98.42 19.52 98.64 19.26Q99.9 17.79 100.51 15.76ZM86.06 15.12Q85.5 13.5 85.5 11.26Q85.5 9 86.06 7.38Q86.55 5.98 87.53 5.13Q87.68 5.01 87.83 4.89Q89.04 4.02 90.96 4.02Q93.08 4.02 94.33 5.07Q94.77 5.44 95.11 5.95Q96.37 7.89 96.37 11.26Q96.37 13.5 95.82 15.12Q95.34 16.52 94.38 17.36Q94.23 17.49 94.07 17.61Q92.87 18.48 90.93 18.48Q89.03 18.48 87.83 17.61Q87.68 17.5 87.55 17.39Q86.56 16.54 86.06 15.12ZM120.1 6.39Q118.6 5.31 116.32 5.31Q115.29 5.31 114.33 5.56Q113.45 5.79 112.72 6.25Q112.65 6.29 112.59 6.34Q112.45 6.43 112.31 6.54Q111.71 7.02 111.28 7.71L111.03 7.71L110.43 5.62L107.02 5.62L107.02 22L111.48 22L111.48 14.29Q111.48 11.67 112.23 10.28Q112.43 9.91 112.72 9.64Q113.52 8.88 115.03 8.88Q116.04 8.88 116.66 9.38Q116.87 9.55 117.03 9.78Q117.66 10.67 117.66 12.43L117.66 22L122.13 22L122.13 11.32Q122.13 8.22 120.59 6.79Q120.56 6.76 120.54 6.74Q120.33 6.55 120.1 6.39ZM163.53 6.39Q162.02 5.31 159.74 5.31Q158.72 5.31 157.76 5.56Q156.88 5.79 156.15 6.25Q156.08 6.29 156.02 6.34Q155.87 6.43 155.74 6.54Q155.14 7.02 154.71 7.71L154.46 7.71L153.86 5.62L150.44 5.62L150.44 22L154.91 22L154.91 14.29Q154.91 11.67 155.66 10.28Q155.85 9.91 156.14 9.64Q156.95 8.88 158.46 8.88Q159.47 8.88 160.08 9.38Q160.29 9.55 160.45 9.78Q161.09 10.67 161.09 12.43L161.09 22L165.56 22L165.56 11.32Q165.56 8.22 164.02 6.79Q163.99 6.76 163.96 6.74Q163.75 6.55 163.53 6.39ZM182.62 6.18Q180.98 5.31 178.71 5.31Q176.4 5.31 174.65 6.27Q174.16 6.54 173.72 6.89Q172.63 7.77 171.94 9.14Q170.96 11.05 170.96 13.92Q170.96 16.75 172.04 18.61Q172.65 19.66 173.51 20.4Q174.18 20.98 175.01 21.38Q176.91 22.29 179.37 22.29Q181.26 22.29 182.59 22.01Q183.23 21.88 183.84 21.67Q184.5 21.44 185.13 21.13L185.13 17.67Q183.75 18.32 182.45 18.64Q181.14 18.96 179.58 18.96Q177.97 18.96 176.97 18.19Q176.79 18.05 176.62 17.89Q176.51 17.77 176.41 17.65Q175.55 16.61 175.49 14.92L186.05 14.92L186.05 12.75Q186.05 10.36 185.16 8.71Q184.68 7.82 183.98 7.16Q183.38 6.59 182.62 6.18ZM143.95 22L143.95 5.62L139.49 5.62L139.49 22L143.95 22ZM177.24 8.84Q177.89 8.49 178.74 8.49Q179.8 8.49 180.48 8.94Q180.74 9.12 180.95 9.34Q181.29 9.69 181.5 10.17Q181.85 10.95 181.86 11.95L175.59 11.95Q175.72 10.16 176.58 9.32Q176.88 9.03 177.24 8.84Z" fill="#3670C7" fill-opacity="1.000000" fill-rule="evenodd"/>
</svg>
