<svg width="20.000000" height="20.000000" viewBox="0 0 20 20" fill="none" xmlns="http://www.w3.org/2000/svg" xmlns:xlink="http://www.w3.org/1999/xlink">
		<clipPath id="clip89_42">
			<rect id="search" width="20.000000" height="20.000000" fill="white" fill-opacity="0"/>
		</clipPath>
	<rect id="search" width="20.000000" height="20.000000" fill="#FFFFFF" fill-opacity="0"/>
	<g clip-path="url(#clip89_42)">
		<path id="Vector" d="M12.91 11.66L12.25 11.66L12.02 11.44C12.84 10.49 13.33 9.25 13.33 7.91C13.33 4.92 10.9 2.5 7.91 2.5C4.92 2.5 2.5 4.92 2.5 7.91C2.5 10.9 4.92 13.33 7.91 13.33C9.25 13.33 10.49 12.84 11.44 12.02L11.66 12.25L11.66 12.91L15.83 17.07L17.07 15.83L12.91 11.66ZM7.91 11.66C5.84 11.66 4.16 9.99 4.16 7.91C4.16 5.84 5.84 4.16 7.91 4.16C9.99 4.16 11.66 5.84 11.66 7.91C11.66 9.99 9.99 11.66 7.91 11.66Z" fill="#FFFFFF" fill-opacity="1.000000" fill-rule="nonzero"/>
	</g>
</svg>
